<svg id="Layer_3" enable-background="new 0 0 64 64" height="512" viewBox="0 0 64 64" width="512" xmlns="http://www.w3.org/2000/svg"><g><g><path d="m6 62c2.209 0 4-1.791 4-4v-56h44v54c0 3.314-2.686 6-6 6z" fill="#c1c8d1"/></g><g><path d="m10 52.856c2.233.742 4.578 1.144 7 1.144 14.912 0 27-14.998 27-33.5 0-6.84-1.656-13.198-4.492-18.5h-29.508z" fill="#f3f4f6"/></g><g><path d="m10 8h-8v50c0 2.209 1.791 4 4 4 2.209 0 4-1.791 4-4z" fill="#c1c8d1"/></g><g><path d="m14 6h36v16h-36z" fill="#96cc7f"/></g><g><path d="m44 45v8c0 1.657-1.343 3-3 3-1.657 0-3-1.343-3-3v-8z" fill="#ebf7fe"/></g><g><path d="m46 31 10-7v28l-10-7z" fill="#ebf7fe"/></g><g><path d="m52 49.2 4 2.8v-28l-4 2.8z" fill="#e0747c"/></g><g><path d="m46 45h-7c-2.761 0-5-2.239-5-5v-4c0-2.761 2.239-5 5-5h7z" fill="#e0747c"/></g><g><path d="m14 26h16v18h-16z" fill="#c1c8d1"/></g><g><g><path d="m22 14.513-3.152-5.043c-.237-.379-.695-.553-1.124-.432-.429.124-.724.516-.724.962v9h2v-5.513l3.152 5.043c.186.298.51.47.848.47.092 0 .185-.013.276-.039.429-.123.724-.515.724-.961v-9h-2z" fill="#fff"/></g><g><path d="m26 10v8c0 .552.448 1 1 1h4v-2h-3v-2h3v-2h-3v-2h3v-2h-4c-.552 0-1 .448-1 1z" fill="#fff"/></g><g><path d="m37 12.808-.071-.179c-.153-.38-.52-.629-.929-.629s-.776.249-.929.628l-.071.18v-3.808h-2v9c0 .479.34.891.811.982.47.089.939-.166 1.118-.61l1.071-2.68 1.071 2.679c.155.385.526.629.929.629.062 0 .126-.006.189-.018.471-.091.811-.503.811-.982v-9h-2z" fill="#fff"/></g><g><path d="m44 11h3v-2h-3c-1.654 0-3 1.346-3 3s1.346 3 3 3c.551 0 1 .449 1 1s-.449 1-1 1h-3v2h3c1.654 0 3-1.346 3-3s-1.346-3-3-3c-.551 0-1-.449-1-1s.449-1 1-1z" fill="#fff"/></g></g><g><g><path d="m59 35h4v2h-4z" fill="#606060"/></g></g><g><g><path d="m58.379 29.5h4.243v2h-4.243z" fill="#606060" transform="matrix(.707 -.707 .707 .707 -3.847 51.713)"/></g></g><g><g><path d="m59.5 39.379h2v4.243h-2z" fill="#606060" transform="matrix(.707 -.707 .707 .707 -11.625 54.935)"/></g></g><g><g><path d="m13 47h22v2h-22z" fill="#606060"/></g></g><g><g><path d="m13 51h22v2h-22z" fill="#606060"/></g></g><g><g><path d="m13 55h22v2h-22z" fill="#606060"/></g></g></g></svg>