<?xml version="1.0" encoding="iso-8859-1"?>
<!-- Generator: Adobe Illustrator 19.0.0, SVG Export Plug-In . SVG Version: 6.00 Build 0)  -->
<svg version="1.1" id="Layer_1" xmlns="http://www.w3.org/2000/svg" xmlns:xlink="http://www.w3.org/1999/xlink" x="0px" y="0px"
	 viewBox="0 0 512 512" style="enable-background:new 0 0 512 512;" xml:space="preserve">
<polygon style="fill:#49618C;" points="508.741,511.999 3.262,511.999 104.429,24.712 109.559,0 402.444,0 "/>
<path style="fill:#3B4773;" d="M354.19,511.999H3.262L104.429,24.712l19.174,8.38C123.603,33.092,96.279,377.991,354.19,511.999z"/>
<g>
	<polyline style="fill:#52BED3;" points="474.259,512 382.462,0.001 402.44,0.001 508.738,512 	"/>
	<polyline style="fill:#52BED3;" points="37.737,512 129.535,0.001 109.557,0.001 3.259,512 	"/>
</g>
<g>
	<polygon style="fill:#E6E6E6;" points="240.002,122.951 238.552,198.074 273.445,198.074 271.994,122.951 	"/>
	<polygon style="fill:#E6E6E6;" points="279.512,511.999 232.491,511.999 234.372,414.688 235.448,358.577 276.544,358.577 
		278.519,460.412 	"/>
	<polygon style="fill:#E6E6E6;" points="270.233,31.629 241.76,31.629 242.376,0 269.617,0 	"/>
	<polygon style="fill:#E6E6E6;" points="271.539,99.422 240.454,99.422 241.404,50.437 270.588,50.437 	"/>
	<polygon style="fill:#E6E6E6;" points="275.836,321.887 273.989,226.285 238.007,226.285 236.161,321.887 	"/>
</g>
<path style="fill:#CCCCCC;" d="M279.512,511.999h-47.02l1.881-97.311c13.124,16.05,27.784,31.399,44.147,45.725L279.512,511.999z"/>
<g>
</g>
<g>
</g>
<g>
</g>
<g>
</g>
<g>
</g>
<g>
</g>
<g>
</g>
<g>
</g>
<g>
</g>
<g>
</g>
<g>
</g>
<g>
</g>
<g>
</g>
<g>
</g>
<g>
</g>
</svg>
