<svg height="512pt" viewBox="0 0 512 512" width="512pt" xmlns="http://www.w3.org/2000/svg"><path d="m266 330.933594h-15v-150h15c41.355469 0 75 33.644531 75 75 0 41.355468-33.644531 75-75 75zm0 0" fill="#e23e95"/><path d="m251 330.933594h15c41.355469 0 75-33.644532 75-75h-90zm0 0" fill="#bb266d"/><path d="m281 511.871094-201.984375-150.9375h-19.015625v-210h19.015625l201.984375-150.933594zm0 0" fill="#fee362"/><path d="m60 255.933594v105h19.015625l201.984375 150.9375v-255.9375zm0 0" fill="#ffcb00"/><path d="m79 360.933594h-79v-210h79zm0 0" fill="#004fc4"/><path d="m79 360.933594h-79v-105h79zm0 0" fill="#003480"/><path d="m372 240.933594h140v30h-140zm0 0" fill="#f3eee9"/><path d="m351.871094 178.941406 121.238281-70 15 25.980469-121.238281 70zm0 0" fill="#f3eee9"/><g fill="#e9dfda"><path d="m351.871094 332.9375 15-25.980469 121.242187 70-15 25.980469zm0 0"/><path d="m372 255.933594h140v15h-140zm0 0"/></g></svg>